<svg width="24" height="24" viewBox="0 0 24 24" fill="none" xmlns="http://www.w3.org/2000/svg">
<g clip-path="url(#clip0_17_9)">
<path d="M2.66667 6.75C2.66667 5.50781 3.5625 4.5 4.66667 4.5C5.77083 4.5 6.66667 5.50781 6.66667 6.75V12H2.66667V6.75ZM0 6.75V17.25C0 20.1516 2.0875 22.5 4.66667 22.5C7.24583 22.5 9.33333 20.1516 9.33333 17.25V8.8875C9.40833 9.78281 9.675 10.6687 10.1583 11.4562L15.5125 20.2359C16.9917 22.6594 19.9 23.25 22.0125 21.5531C24.125 19.8562 24.6375 16.5141 23.1583 14.0906L17.8042 5.31094C16.325 2.88281 13.4125 2.29687 11.3042 3.99375C10.1375 4.93125 9.45833 6.375 9.33333 7.88437V6.75C9.33333 3.84844 7.24583 1.5 4.66667 1.5C2.0875 1.5 0 3.84844 0 6.75ZM12.3583 9.75937C11.6917 8.66719 11.9417 7.16719 12.8542 6.43125C13.7375 5.72344 14.9583 5.94844 15.6042 7.00312L18.3958 11.5781L15.0667 14.2031L12.3583 9.75937ZM20.4583 19.1109C20.425 19.1391 20.3917 19.1625 20.3583 19.1859L20.525 19.0547C20.5042 19.0734 20.4833 19.0922 20.4583 19.1109Z" fill="#6B5FEF"/>
</g>
<defs>
<clipPath id="clip0_17_9">
<rect width="24" height="24" fill="white"/>
</clipPath>
</defs>
</svg>
