<svg width="29" height="24" viewBox="0 0 29 24" fill="none" xmlns="http://www.w3.org/2000/svg">
<path d="M3.22222 12.8L2.00382 11.59C0.719965 10.315 0 8.59 0 6.79C0 3.04 3.06111 0 6.83715 0C8.64965 0 10.3866 0.715 11.6705 1.99L12.8889 3.2L14.1073 1.99C15.3911 0.715 17.1281 0 18.9406 0C22.7167 0 25.7778 3.04 25.7778 6.79C25.7778 7.48 25.672 8.16 25.4656 8.81C24.3378 8.29 23.0792 8 21.75 8C16.8563 8 12.8889 11.94 12.8889 16.8C12.8889 18.41 13.3219 19.915 14.0821 21.215L12.8889 22.4L3.22222 12.8ZM21.75 24C17.7474 24 14.5 20.775 14.5 16.8C14.5 12.825 17.7474 9.6 21.75 9.6C25.7526 9.6 29 12.825 29 16.8C29 20.775 25.7526 24 21.75 24ZM22.5556 13.6V12.8H20.9444V13.6V16H18.5278H17.7222V17.6H18.5278H20.9444V20V20.8H22.5556V20V17.6H24.9722H25.7778V16H24.9722H22.5556V13.6Z" fill="#6B5FEF"/>
</svg>
