<svg width="22" height="27" viewBox="0 0 22 27" fill="none" xmlns="http://www.w3.org/2000/svg">
<path d="M12.3578 26.3933C15.2969 22.999 22 14.7722 22 10.1513C22 4.54692 17.0729 0 11 0C4.92708 0 0 4.54692 0 10.1513C0 14.7722 6.70313 22.999 9.64219 26.3933C10.3469 27.2022 11.6531 27.2022 12.3578 26.3933ZM11 13.535C8.9776 13.535 7.33333 12.0176 7.33333 10.1513C7.33333 8.28492 8.9776 6.76751 11 6.76751C13.0224 6.76751 14.6667 8.28492 14.6667 10.1513C14.6667 12.0176 13.0224 13.535 11 13.535Z" fill="#6B5FEF"/>
</svg>
