<svg width="28" height="28" viewBox="0 0 28 28" fill="none" xmlns="http://www.w3.org/2000/svg">
<path d="M11.625 24.2188C11.625 25.8232 10.3232 27.125 8.71875 27.125H2.90625C1.30176 27.125 0 25.8232 0 24.2188V18.4063C0 16.8018 1.30176 15.5 2.90625 15.5H8.71875C10.3232 15.5 11.625 16.8018 11.625 18.4063V24.2188ZM11.625 8.71876C11.625 10.3233 10.3232 11.625 8.71875 11.625H2.90625C1.30176 11.625 0 10.3233 0 8.71876V2.90626C0 1.30177 1.30176 1.50204e-05 2.90625 1.50204e-05H8.71875C10.3232 1.50204e-05 11.625 1.30177 11.625 2.90626V8.71876ZM15.5 24.2188V18.4063C15.5 16.8018 16.8017 15.5 18.4062 15.5H24.2187C25.8232 15.5 27.125 16.8018 27.125 18.4063V24.2188C27.125 25.8232 25.8232 27.125 24.2187 27.125H18.4062C16.8017 27.125 15.5 25.8232 15.5 24.2188ZM27.125 8.71876C27.125 10.3233 25.8232 11.625 24.2187 11.625H18.4062C16.8017 11.625 15.5 10.3233 15.5 8.71876V2.90626C15.5 1.30177 16.8017 1.50204e-05 18.4062 1.50204e-05H24.2187C25.8232 1.50204e-05 27.125 1.30177 27.125 2.90626V8.71876Z" fill="#6B5FEF"/>
</svg>
