<svg width="40" height="10" viewBox="0 0 40 10" fill="none" xmlns="http://www.w3.org/2000/svg">
<g clip-path="url(#clip0_30_24)">
<path d="M28.125 5C28.125 2.58594 30.0859 0.625 32.5 0.625C34.9141 0.625 36.875 2.58594 36.875 5C36.875 7.41406 34.9141 9.375 32.5 9.375C30.0859 9.375 28.125 7.41406 28.125 5ZM15.625 5C15.625 2.58594 17.5859 0.625 20 0.625C22.4141 0.625 24.375 2.58594 24.375 5C24.375 7.41406 22.4141 9.375 20 9.375C17.5859 9.375 15.625 7.41406 15.625 5ZM7.5 0.625C9.91406 0.625 11.875 2.58594 11.875 5C11.875 7.41406 9.91406 9.375 7.5 9.375C5.08594 9.375 3.125 7.41406 3.125 5C3.125 2.58594 5.08594 0.625 7.5 0.625Z" fill="#6B5FEF"/>
</g>
<defs>
<clipPath id="clip0_30_24">
<rect width="10" height="40" fill="white" transform="translate(0 10) rotate(-90)"/>
</clipPath>
</defs>
</svg>
