<svg width="24" height="24" viewBox="0 0 24 24" fill="none" xmlns="http://www.w3.org/2000/svg">
<path d="M15 2.25H13.875H13.125V3.825C14.5641 4.02187 15.8812 4.58906 16.9828 5.42344L18.0984 4.3125L17.5687 3.77812L16.7719 2.98125L18.3609 1.39219L19.1578 2.18906L20.4844 3.51562L21.8109 4.84219L22.6078 5.63906L21.0187 7.22812L20.2219 6.43125L19.6875 5.90156L18.5719 7.01719C19.4109 8.11875 19.9734 9.44062 20.1703 10.875H21.75V10.125V9H24V10.125V12V13.875V15H21.75V13.875V13.125H20.175C19.9781 14.5641 19.4109 15.8812 18.5766 16.9828L19.6875 18.0984L20.2172 17.5687L21.0141 16.7719L22.6031 18.3609L21.8063 19.1578L20.4844 20.4844L19.1578 21.8109L18.3609 22.6078L16.7719 21.0187L17.5687 20.2219L18.0984 19.6875L16.9828 18.5719C15.8812 19.4109 14.5594 19.9734 13.125 20.1703V21.75H13.875H15V24H13.875H12H10.125H9V21.75H10.125H10.875V20.175C9.43594 19.9781 8.11875 19.4109 7.01719 18.5766L5.90156 19.6875L6.43125 20.2172L7.22812 21.0141L5.63906 22.6031L4.84219 21.8063L3.51562 20.4844L2.18906 19.1578L1.39219 18.3609L2.98125 16.7719L3.77812 17.5687L4.3125 18.0984L5.42813 16.9828C4.58906 15.8812 4.02187 14.5641 3.825 13.125H2.25V13.875V15H0V13.875V12V10.125V9H2.25V10.125V10.875H3.825C4.02187 9.43594 4.58906 8.11875 5.42344 7.01719L4.3125 5.90156L3.77812 6.43125L2.98125 7.22812L1.39219 5.63437L2.18906 4.8375L3.51562 3.51562L4.84219 2.18906L5.63906 1.39219L7.22812 2.98125L6.43125 3.77812L5.90156 4.3125L7.01719 5.42813C8.11875 4.58906 9.44062 4.02656 10.875 3.82969V2.25H10.125H9V0H10.125H12H13.875H15V2.25ZM11.25 10.5C11.25 9.25781 10.2422 8.25 9 8.25C7.75781 8.25 6.75 9.25781 6.75 10.5C6.75 11.7422 7.75781 12.75 9 12.75C10.2422 12.75 11.25 11.7422 11.25 10.5ZM14.25 15.375C14.8734 15.375 15.375 14.8734 15.375 14.25C15.375 13.6266 14.8734 13.125 14.25 13.125C13.6266 13.125 13.125 13.6266 13.125 14.25C13.125 14.8734 13.6266 15.375 14.25 15.375Z" fill="#6B5FEF"/>
</svg>
