<svg width="24" height="24" viewBox="0 0 24 24" fill="none" xmlns="http://www.w3.org/2000/svg">
<g clip-path="url(#clip0_89_16)">
<rect x="10.2578" y="3.75" width="4.5" height="4.5" rx="2.25" transform="rotate(90 10.2578 3.75)" stroke="#252525" stroke-width="1.5"/>
<path d="M3 5.25C2.58578 5.25 2.25 5.58579 2.25 6C2.25 6.41421 2.58578 6.75 3 6.75L3 5.25ZM5.73474 6.75C6.14895 6.75 6.48474 6.41421 6.48474 6C6.48474 5.58579 6.14896 5.25 5.73474 5.25L5.73474 6.75ZM3 6.75L5.73474 6.75L5.73474 5.25L3 5.25L3 6.75Z" fill="#252525"/>
<path d="M10.5335 5.25C10.1193 5.25 9.78351 5.58579 9.78351 6C9.78351 6.41421 10.1193 6.75 10.5335 6.75L10.5335 5.25ZM21 6.75C21.4142 6.75 21.75 6.41421 21.75 6C21.75 5.58579 21.4142 5.25 21 5.25L21 6.75ZM10.5335 6.75L21 6.75L21 5.25L10.5335 5.25L10.5335 6.75Z" fill="#252525"/>
<rect x="13.7422" y="14.25" width="4.5" height="4.5" rx="2.25" transform="rotate(-90 13.7422 14.25)" stroke="#252525" stroke-width="1.5"/>
<path d="M21 12.75C21.4142 12.75 21.75 12.4142 21.75 12C21.75 11.5858 21.4142 11.25 21 11.25L21 12.75ZM18.2653 11.25C17.851 11.25 17.5153 11.5858 17.5153 12C17.5153 12.4142 17.851 12.75 18.2653 12.75L18.2653 11.25ZM21 11.25L18.2653 11.25L18.2653 12.75L21 12.75L21 11.25Z" fill="#252525"/>
<path d="M13.4665 12.75C13.8807 12.75 14.2165 12.4142 14.2165 12C14.2165 11.5858 13.8807 11.25 13.4665 11.25L13.4665 12.75ZM3 11.25C2.58579 11.25 2.25 11.5858 2.25 12C2.25 12.4142 2.58579 12.75 3 12.75L3 11.25ZM13.4665 11.25L3 11.25L3 12.75L13.4665 12.75L13.4665 11.25Z" fill="#252525"/>
<rect x="10.2578" y="15.75" width="4.5" height="4.5" rx="2.25" transform="rotate(90 10.2578 15.75)" stroke="#252525" stroke-width="1.5"/>
<path d="M3 17.25C2.58578 17.25 2.25 17.5858 2.25 18C2.25 18.4142 2.58578 18.75 3 18.75L3 17.25ZM5.73474 18.75C6.14895 18.75 6.48474 18.4142 6.48474 18C6.48474 17.5858 6.14896 17.25 5.73474 17.25L5.73474 18.75ZM3 18.75L5.73474 18.75L5.73474 17.25L3 17.25L3 18.75Z" fill="#252525"/>
<path d="M10.5335 17.25C10.1193 17.25 9.78351 17.5858 9.78351 18C9.78351 18.4142 10.1193 18.75 10.5335 18.75L10.5335 17.25ZM21 18.75C21.4142 18.75 21.75 18.4142 21.75 18C21.75 17.5858 21.4142 17.25 21 17.25L21 18.75ZM10.5335 18.75L21 18.75L21 17.25L10.5335 17.25L10.5335 18.75Z" fill="#252525"/>
</g>
<defs>
<clipPath id="clip0_89_16">
<rect width="24" height="24" fill="white"/>
</clipPath>
</defs>
</svg>
