<svg width="48" height="48" viewBox="0 0 48 48" fill="none" xmlns="http://www.w3.org/2000/svg">
<rect width="48" height="48" rx="10" fill="#F6F6F6"/>
<g clip-path="url(#clip0_53_3)">
<path d="M18.75 38.5C21.372 38.5 23.5 36.372 23.5 33.75V29H18.75C16.128 29 14 31.128 14 33.75C14 36.372 16.128 38.5 18.75 38.5Z" fill="#0ACF83"/>
<path d="M14 24.25C14 21.628 16.128 19.5 18.75 19.5H23.5V29H18.75C16.128 29 14 26.872 14 24.25Z" fill="#A259FF"/>
<path d="M14 14.75C14 12.128 16.128 10 18.75 10H23.5V19.5H18.75C16.128 19.5 14 17.372 14 14.75Z" fill="#F24E1E"/>
<path d="M23.5 10H28.25C30.872 10 33 12.128 33 14.75C33 17.372 30.872 19.5 28.25 19.5H23.5V10Z" fill="#FF7262"/>
<path d="M33 24.25C33 26.872 30.872 29 28.25 29C25.628 29 23.5 26.872 23.5 24.25C23.5 21.628 25.628 19.5 28.25 19.5C30.872 19.5 33 21.628 33 24.25Z" fill="#1ABCFE"/>
</g>
<defs>
<clipPath id="clip0_53_3">
<rect width="19" height="28.5" fill="white" transform="translate(14 10)"/>
</clipPath>
</defs>
</svg>
