<svg width="56" height="21" viewBox="0 0 56 21" fill="none" xmlns="http://www.w3.org/2000/svg">
<path d="M40.7087 0.860188C39.4073 0.279907 38.0316 -0.0112822 36.6465 0.000334333C32.1672 0.000334333 29.0037 2.76146 28.9813 6.72502C28.9533 9.63688 31.2293 11.2778 32.9511 12.2507C34.7176 13.251 35.3083 13.8814 35.3027 14.7755C35.2915 16.1355 33.8917 16.7521 32.5899 16.7521C30.801 16.7521 29.8239 16.4472 28.3206 15.6833L27.7634 15.3647L27.1279 19.9278C28.217 20.4827 30.1795 20.9589 32.2064 21C36.9685 21 40.0816 18.256 40.118 14.0389C40.1572 11.7129 38.9254 9.95548 36.3329 8.50297C34.7568 7.5609 33.7797 6.93057 33.7797 5.97479C33.7797 5.12864 34.6168 4.22425 36.3665 4.22425C37.5311 4.18977 38.6884 4.45712 39.7624 5.00874L40.1824 5.23826L40.8179 0.829357L40.7087 0.860188V0.860188ZM52.3326 0.370311H48.8331C47.744 0.370311 46.9238 0.736864 46.4478 2.05919L39.7176 20.7157H44.4797L45.4316 17.6565L51.2435 17.6633C51.3807 18.3793 51.8006 20.7157 51.8006 20.7157H56L52.3326 0.370311V0.370311ZM22.5394 0.199025H27.0775L24.2388 20.5547H19.7062L22.5394 0.192174V0.199025V0.199025ZM11.0191 11.4183L11.4895 14.2445L15.924 0.370311H20.7309L13.5892 20.6883H8.79348L4.87407 3.48429C4.81059 3.20061 4.66151 2.95698 4.45693 2.80257C3.04427 1.90962 1.54745 1.23197 0 0.784821L0.0615906 0.356606H7.3657C8.35675 0.404566 9.15463 0.784822 9.42059 2.07974L11.0163 11.4285V11.4183H11.0191ZM46.7334 13.4942L48.5419 7.8007C48.5195 7.86236 48.9143 6.62568 49.1438 5.86174L49.4546 7.61914L50.5044 13.4908H46.7306V13.4942H46.7334Z" fill="white"/>
</svg>
